<?xml version="1.0" encoding="UTF-8"?>
<svg id="Camada_1" xmlns="http://www.w3.org/2000/svg" version="1.1" viewBox="0 0 179.4 100">
  <!-- Generator: Adobe Illustrator 29.4.0, SVG Export Plug-In . SVG Version: 2.1.0 Build 152)  -->
  <defs>
    <style>
      .st0 {
        fill: #111a2c;
      }

      .st1 {
        fill: #f5a209;
      }
    </style>
  </defs>
  <path class="st0" d="M64.8,51.9v13.9c-2.7-3.6-6.8-5.7-11.7-5.7-8.3,0-14.5,5-17,12.3-2.2-7.1-8.3-12.3-17-12.3S0,68.8,0,80s8.4,20,19.7,20,10.4-1.2,13.8-3v-10.1c-3.5,2.2-8.2,3.6-13,3.6s-9.2-2.8-10.1-7.2h24.7c1.3,9.6,8.2,16.7,17.9,16.7s9.1-2.1,11.7-5.8v4.9h10.4v-47.3h-10.4ZM10.4,75.4c.5-3.6,4-6.6,8.6-6.6s7.8,2.7,7.9,6.6H10.4ZM55.3,89.7c-5.5,0-9.6-4.5-9.6-9.7s4.1-9.6,9.6-9.6,9.5,4.4,9.5,9.6-4,9.7-9.5,9.7Z"/>
  <path class="st0" d="M99.6,83.2c-.2,4-2.7,6.6-6.5,6.6s-6.5-2.8-6.5-7.1v-21.7h-10.4v24.7c0,8.2,5.3,14.4,13.4,14.4s8.1-2.3,10.1-5.6v4.8h10.4v-38.2h-10.4v22.3Z"/>
  <path class="st0" d="M163.2,87.6c0-4.1,2.6-7.6,6.2-9v-2.4c0-11.1-6-16-16.3-16s-8.3,1.1-11.1,2.2v10.3c2.8-1.7,6.5-3.2,9.8-3.2s7.1,1.9,7.1,6.5v2.1c-1.9-1.6-5.1-2.8-8.4-2.8-7.8,0-12.7,5.5-12.7,12.3s0,.3,0,.4c-1.9,1-4.3,1.8-7.1,1.8-5.6,0-9.6-4.5-9.6-9.8s4-9.7,9.6-9.7,6.5,1.2,8.4,2.6v-11.1c-2.1-1.1-5.9-1.8-8.4-1.8-12.1,0-20.2,8.6-20.2,19.9s8.1,20,20.2,20,6.3-.7,8.4-1.8v-4.5c1.8,3.7,5.5,6.3,11.2,6.3s6.6-1.5,8.5-3.7v2.8h10.4v-2.6c-3.6-1.4-6.2-4.9-6.2-9ZM151.7,92.6c-3.1,0-5.5-2.5-5.5-5.5s2.5-5.5,5.5-5.5,5.5,2.5,5.5,5.5-2.5,5.5-5.5,5.5Z"/>
  <path class="st1" d="M172.9,81c-1.3,0-2.4.4-3.4,1-1.9,1.2-3.1,3.2-3.1,5.6s1.2,4.4,3.1,5.6c1,.6,2.2,1,3.4,1,3.6,0,6.5-2.9,6.5-6.5s-2.9-6.5-6.5-6.5Z"/>
  <g>
    <path class="st0" d="M28.4,43.9c-2.5,3.3-6.2,5.3-10.7,5.3-9.9,0-16.5-8-16.5-18.2S7.8,12.8,17.8,12.8s8.2,1.9,10.7,5.2V3.8h9.5v44.6h-9.5v-4.5ZM19.7,22.1c-5,0-8.8,4-8.8,8.8s3.8,8.8,8.8,8.8,8.7-4.1,8.7-8.8-3.6-8.8-8.7-8.8Z"/>
    <rect class="st0" x="41.5" y="13.5" width="9.5" height="34.9"/>
    <rect class="st0" x="95.2" y="13.5" width="9.5" height="34.9"/>
    <path class="st0" d="M112.6,48.4v-26.8h-5.3v-8.1h5.9V3.8h9v9.7h5.9v8.1h-5.9v26.8h-9.5Z"/>
    <path class="st0" d="M168,48.4h-9.6V0h9.6v48.4Z"/>
    <path class="st0" d="M91.1,26.9h-18.6v8.1h9.1c-1.5,3.2-4.7,5.4-8.5,5.4s-9.5-4.2-9.5-9.5,2.3-7.1,5.6-8.6c.2-.1.5-.2.7-.3.1,0,.2,0,.3-.1.4-.1.9-.3,1.4-.3,2.6-.5,6.4-.4,11.8,1.2v-8.5c-2.3-1-7.7-1.9-10.3-1.9-10.2,0-18.5,8.3-18.5,18.5s8.3,18.5,18.5,18.5,16.2-6.2,18-14.4c.3-1.3.5-2.7.5-4.1s-.2-2.8-.5-4.1Z"/>
    <path class="st0" d="M139.7,12.3c-3.7,0-7.7,1-10.2,2.1v9.5c2.6-1.6,6-3,9.1-3s6.5,1.8,6.5,6v1.9c-1.8-1.5-4.8-2.6-7.7-2.6s-6,1-8,2.8h0s0,0,0,0c-.3.3-.6.5-.8.8,0,0,0,0,0,0-.2.3-.5.5-.7.8,0,0,0,0-.1.1-.2.3-.4.5-.5.8,0,0,0,.1-.1.2-.1.3-.3.5-.4.8,0,0,0,.2-.1.3-.1.3-.2.5-.3.8,0,.1,0,.2-.1.3,0,.3-.1.5-.2.8,0,.1,0,.2,0,.4,0,.3,0,.6-.1.8,0,.1,0,.2,0,.4,0,.4,0,.8,0,1.2,0,0,0,0,0,0h0c0,.1,0,.3,0,.4,0,0,0,0,0,0,0,1.8.5,3.6,1.3,5.2h0c0,.1,0,.2.1.2.1.2.2.4.3.6.1.2.2.4.4.6.1.2.2.3.4.5.3.4.7.9,1.1,1.2,0,0,.1.1.2.2h0c1.9,1.6,4.5,2.6,7.8,2.6s6.1-1.3,7.9-3.4v2.6h9.6v-21.2c0-10.3-5.5-14.8-15-14.8ZM138,42.3c-2.6,0-4.7-2.1-4.7-4.7s2.1-4.7,4.7-4.7,4.7,2.1,4.7,4.7-2.1,4.7-4.7,4.7Z"/>
  </g>
</svg>