<svg xmlns="http://www.w3.org/2000/svg" xmlns:xlink="http://www.w3.org/1999/xlink" width="215.061" height="128.798" viewBox="0 0 215.061 128.798">
  <defs>
    <clipPath id="clip-path">
      <rect id="Ret창ngulo_124" data-name="Ret창ngulo 124" width="215.061" height="128.798" fill="none"/>
    </clipPath>
    <clipPath id="clip-path-2">
      <path id="Caminho_80" data-name="Caminho 80" d="M36.554,0a26.907,26.907,0,0,0,0,53.813H64.047a30.32,30.32,0,0,1-2.8,9.744s0,2.913,7.528-.487c3.394-1.531,8.118-5.435,12.286-9.257H171.94A26.907,26.907,0,1,0,171.94,0Z" transform="translate(-9.648)" fill="none"/>
    </clipPath>
    <linearGradient id="linear-gradient" x1="-0.076" y1="1.938" x2="-0.068" y2="1.938" gradientUnits="objectBoundingBox">
      <stop offset="0" stop-color="#0090ff"/>
      <stop offset="1" stop-color="#1552dc"/>
    </linearGradient>
  </defs>
  <g id="Grupo_307" data-name="Grupo 307" transform="translate(0 0)">
    <g id="Grupo_302" data-name="Grupo 302" transform="translate(0 0)">
      <g id="Grupo_301" data-name="Grupo 301" clip-path="url(#clip-path)">
        <path id="Caminho_73" data-name="Caminho 73" d="M77.161,77.486l6.38-.01a2.679,2.679,0,0,1,2.252.875,2.438,2.438,0,0,1,.247,2.327L85.512,82.4a4.608,4.608,0,0,1-1.764,2.456,4.946,4.946,0,0,1-2.946.933l-4.174.007-1.344,4.278-2.1,0Zm4.177,6.461a2.074,2.074,0,0,0,1.31-.451,2.317,2.317,0,0,0,.8-1.167l.491-1.594a1.18,1.18,0,0,0-.067-1.053,1.042,1.042,0,0,0-.929-.39l-4.273.007-1.462,4.655Z" transform="translate(36.47 38.611)" fill="#fff"/>
        <path id="Caminho_74" data-name="Caminho 74" d="M85.015,89.655A2.665,2.665,0,0,1,83.9,87.987a4.839,4.839,0,0,1,.177-2.486l1.044-3.452a6.873,6.873,0,0,1,1.313-2.459,6.227,6.227,0,0,1,2.095-1.642,5.847,5.847,0,0,1,2.553-.581l1.883,0a3.937,3.937,0,0,1,2.221.574,2.647,2.647,0,0,1,1.131,1.636,4.775,4.775,0,0,1-.147,2.457l-1.008,3.452a6.933,6.933,0,0,1-1.3,2.489,6.228,6.228,0,0,1-2.114,1.672,5.9,5.9,0,0,1-2.594.6l-1.906,0a3.87,3.87,0,0,1-2.234-.589m4.694-1.287a3.078,3.078,0,0,0,2.053-.818,4.4,4.4,0,0,0,1.326-2.135l.972-3.308A2.7,2.7,0,0,0,93.993,80a1.642,1.642,0,0,0-1.57-.8l-1.868,0a3.056,3.056,0,0,0-2.047.8,4.394,4.394,0,0,0-1.319,2.113l-.995,3.308a2.729,2.729,0,0,0,.052,2.132,1.638,1.638,0,0,0,1.578.812Z" transform="translate(41.766 38.555)" fill="#fff"/>
        <path id="Caminho_75" data-name="Caminho 75" d="M94.706,89.619a1.234,1.234,0,0,1-.1-1.107l3.165-11.059,5.667-.01a4.561,4.561,0,0,1,2.3.52,2.6,2.6,0,0,1,1.226,1.485,3.869,3.869,0,0,1-.04,2.233L105.9,85.346a6.479,6.479,0,0,1-2.138,3.487,5.94,5.94,0,0,1-3.791,1.2l-4.264.007a1.154,1.154,0,0,1-1.005-.417m5.739-1.461a3.18,3.18,0,0,0,2.137-.739,4.215,4.215,0,0,0,1.248-2.141l.98-3.523a1.929,1.929,0,0,0-.229-1.8,2.041,2.041,0,0,0-1.713-.683l-3.544.006L96.8,88.164Z" transform="translate(47.105 38.594)" fill="#fff"/>
        <path id="Caminho_76" data-name="Caminho 76" d="M106.665,89.619a2.75,2.75,0,0,1-1.112-1.668,4.961,4.961,0,0,1,.117-2.486l.938-3.452a6.707,6.707,0,0,1,1.227-2.459,5.908,5.908,0,0,1,2.017-1.641,5.565,5.565,0,0,1,2.5-.583l1.885,0a3.771,3.771,0,0,1,2.1.538,2.591,2.591,0,0,1,1.112,1.528,4.435,4.435,0,0,1-.067,2.3l-2.051,0a2.275,2.275,0,0,0-.139-1.84,1.565,1.565,0,0,0-1.437-.692l-1.886,0a2.832,2.832,0,0,0-1.96.8,4.329,4.329,0,0,0-1.226,2.113l-.892,3.308a2.908,2.908,0,0,0,.069,2.14,1.54,1.54,0,0,0,1.489.8l1.939,0a2.728,2.728,0,0,0,1.9-.8,4.212,4.212,0,0,0,1.187-2.062l2.059,0a6.818,6.818,0,0,1-1.193,2.478,5.9,5.9,0,0,1-1.981,1.665,5.353,5.353,0,0,1-2.466.595l-1.943,0a3.722,3.722,0,0,1-2.179-.587" transform="translate(52.548 38.538)" fill="#fff"/>
        <path id="Caminho_77" data-name="Caminho 77" d="M123.742,86.851l-4.986.009L116.791,90l-2.174,0,8.067-12.594h.941a.991.991,0,0,1,1.1.941L126.3,89.984l-2.194,0ZM119.8,85.089l3.794-.006-.6-5.093h-.019Z" transform="translate(57.119 38.577)" fill="#fff"/>
        <path id="Caminho_78" data-name="Caminho 78" d="M126.3,89.086a3.438,3.438,0,0,1-.358-2.968l2.06,0a2.008,2.008,0,0,0,.144,1.6,1.466,1.466,0,0,0,1.325.586l1.993,0a2.825,2.825,0,0,0,1.507-.393,1.623,1.623,0,0,0,.779-1.025l.186-.794a.84.84,0,0,0-.184-.812,1.726,1.726,0,0,0-.968-.448l-3.124-.553a3.365,3.365,0,0,1-2.09-1,2.068,2.068,0,0,1-.349-1.916l.238-.984a3.488,3.488,0,0,1,.878-1.606,4.406,4.406,0,0,1,1.638-1.077,5.858,5.858,0,0,1,2.15-.387l2.008,0a3.453,3.453,0,0,1,1.84.451,2.274,2.274,0,0,1,1.005,1.287,3.571,3.571,0,0,1,.013,1.927l-2.033,0a1.61,1.61,0,0,0-.157-1.331,1.246,1.246,0,0,0-1.1-.5l-2.011,0a2.665,2.665,0,0,0-1.429.367,1.558,1.558,0,0,0-.746.99l-.154.644a.9.9,0,0,0,.157.833,1.481,1.481,0,0,0,.93.436l3.114.569a3.7,3.7,0,0,1,2.134.993,1.957,1.957,0,0,1,.4,1.864l-.273,1.175a3.572,3.572,0,0,1-.884,1.641,4.549,4.549,0,0,1-1.681,1.119,5.955,5.955,0,0,1-2.2.4l-2.068,0a3.138,3.138,0,0,1-2.688-1.086" transform="translate(62.679 38.521)" fill="#fff"/>
        <path id="Caminho_79" data-name="Caminho 79" d="M140.5,79.178l-3.951.006.411-1.8,9.967-.016-.393,1.8-3.951.007-2.4,10.787-2.105,0Z" transform="translate(68.046 38.558)" fill="#fff"/>
      </g>
    </g>
    <g id="Grupo_304" data-name="Grupo 304" transform="translate(14.456 0)">
      <g id="Grupo_303" data-name="Grupo 303" clip-path="url(#clip-path-2)">
        <rect id="Ret창ngulo_125" data-name="Ret창ngulo 125" width="189.199" height="66.47" transform="translate(0 -0.001)" fill="url(#linear-gradient)"/>
      </g>
    </g>
    <g id="Grupo_306" data-name="Grupo 306" transform="translate(0 0)">
      <g id="Grupo_305" data-name="Grupo 305" clip-path="url(#clip-path)">
        <path id="Caminho_81" data-name="Caminho 81" d="M52.9,7.029c-3.082,0-5.3.815-6.8,2.492V7.482H36.36V41.059H46.6V30.592a8.635,8.635,0,0,0,6.3,2.131c6.48,0,11.963-4.849,11.963-12.824S59.381,7.029,52.9,7.029M50.452,24.747c-2.266,0-4.032-1.632-4.032-4.849S48.186,15,50.452,15s4.034,1.678,4.034,4.9-1.768,4.849-4.034,4.849" transform="translate(18.12 3.504)" fill="#fff"/>
        <path id="Caminho_82" data-name="Caminho 82" d="M91.364,7.029c-3.082,0-5.3.815-6.8,2.492V7.482H74.824V41.059h10.24V30.592a8.635,8.635,0,0,0,6.3,2.131c6.48,0,11.963-4.849,11.963-12.824S97.845,7.029,91.364,7.029M88.916,24.747c-2.265,0-4.032-1.632-4.032-4.849S86.65,15,88.916,15s4.034,1.678,4.034,4.9-1.768,4.849-4.034,4.849" transform="translate(37.288 3.504)" fill="#fff"/>
        <path id="Caminho_83" data-name="Caminho 83" d="M68.479,7.028A22.48,22.48,0,0,0,57.332,9.837l3.262,6.752a11.188,11.188,0,0,1,6.344-1.948c2.9,0,4.351,1,4.669,2.9H67.483c-7.7,0-11.329,2.675-11.329,7.477,0,4.26,3.126,7.7,9.2,7.7,3.488,0,5.845-1.224,7.023-3.716v3.262h9.517V18.946c0-8.247-4.9-11.918-13.413-11.918M71.651,24.2a3.242,3.242,0,0,1-3.217,2.357c-1.542,0-2.448-.862-2.448-1.994,0-1.359.951-2.084,3.127-2.084h2.538Z" transform="translate(27.984 3.503)" fill="#fff"/>
        <path id="Caminho_84" data-name="Caminho 84" d="M109.328,7.029c-8.383,0-14.41,5.3-14.41,12.824s6.026,12.869,14.41,12.869c8.428,0,14.411-5.348,14.411-12.869S117.756,7.029,109.328,7.029m0,17.718c-2.265,0-4.032-1.677-4.032-4.894S107.062,15,109.328,15s4.034,1.632,4.034,4.85-1.768,4.894-4.034,4.894" transform="translate(47.302 3.504)" fill="#fff"/>
        <path id="Caminho_85" data-name="Caminho 85" d="M39.549,45.816l.07,42.408a.036.036,0,0,1-.036.036l-13.46.022a.036.036,0,0,1-.037-.036l0-2.794c-2.075,2.33-5.156,3.469-9.435,3.475C7.646,88.941.018,82.157,0,71.079S7.586,53.255,16.588,53.24c3.74-.006,6.62.915,8.7,2.889a.033.033,0,0,0,.057-.025l-.024-14.486a.036.036,0,0,1,.036-.036l9.93-.016a4.258,4.258,0,0,1,4.266,4.251M25.619,71.037c-.009-4.468-2.466-6.731-5.614-6.726s-5.6,2.276-5.59,6.744,2.466,6.794,5.613,6.789,5.6-2.337,5.592-6.807" transform="translate(0 20.715)" fill="#fff"/>
        <path id="Caminho_86" data-name="Caminho 86" d="M30.635,49.75l10.232-.016a3.956,3.956,0,0,1,3.963,3.948L44.88,84.12a.036.036,0,0,1-.036.036l-14.152.024a.036.036,0,0,1-.036-.036L30.6,49.786a.036.036,0,0,1,.036-.036" transform="translate(15.249 24.786)" fill="#fff"/>
        <path id="Caminho_87" data-name="Caminho 87" d="M79.234,49.884a4.111,4.111,0,0,1,4.119,4.1l.037,23.458c.022,13.343-7.772,19.711-20.926,19.733-6.785.01-12.943-1.42-17.225-4.234a.036.036,0,0,1-.012-.046l4.733-9.633a.034.034,0,0,1,.052-.013A19.866,19.866,0,0,0,61,86.608c5.853-.009,8.179-2.6,8.17-7.188V78.79c-2.138,2.459-5.282,3.659-9.5,3.666a16.192,16.192,0,0,1-16.581-16.59c-.016-10.2,7.776-16.566,16.525-16.581,4.723-.007,8.06,1.434,10.207,4.515l-.007-3.866a.036.036,0,0,1,.036-.036ZM69.22,65.014c-.388-2.937-2.866-4.747-6.031-4.652a5.742,5.742,0,0,0-5.635,6.269c.384,2.923,2.866,4.79,5.981,4.741a5.783,5.783,0,0,0,5.685-6.357" transform="translate(21.473 24.562)" fill="#fff"/>
        <path id="Caminho_88" data-name="Caminho 88" d="M73.174,45.407c-.006-4.09,3.325-7.245,8.55-7.252s8.565,2.881,8.572,6.972c.007,4.344-3.325,7.5-8.548,7.505s-8.566-3.133-8.574-7.225m1.5,10.006L84.7,55.4a4.162,4.162,0,0,1,4.168,4.155l.049,30.231a.036.036,0,0,1-.036.036l-14.152.024a.036.036,0,0,1-.036-.036l-.057-34.357a.036.036,0,0,1,.036-.036" transform="translate(36.466 19.015)" fill="#fff"/>
        <path id="Caminho_89" data-name="Caminho 89" d="M114.315,85.438a.112.112,0,0,1-.061.139,20.253,20.253,0,0,1-8.689,1.686c-9.5.015-15.051-4.444-15.067-13.948l-.015-8.776a.035.035,0,0,0-.036-.036l-4.648.009a.036.036,0,0,1-.036-.036l-.018-10.313a.037.037,0,0,1,.036-.037l4.649-.007a.036.036,0,0,0,.036-.036l-.016-9.558a.036.036,0,0,1,.036-.036l10.364-.018a3.825,3.825,0,0,1,3.831,3.819l.01,5.769a.036.036,0,0,0,.036.036l3.069,0a3.944,3.944,0,0,1,3.95,3.938l.012,6.405a.036.036,0,0,1-.036.036l-6.976.012a.035.035,0,0,0-.036.036l.013,8.65c0,2.14,1.265,3.334,2.964,3.331a5.787,5.787,0,0,0,3.2-.944s.009-.01.01,0l3.421,9.888" transform="translate(42.731 22.162)" fill="#fff"/>
        <path id="Caminho_90" data-name="Caminho 90" d="M141.792,65.706l.031,18.467a.036.036,0,0,1-.036.036l-13.145.022a.035.035,0,0,1-.036-.036l-.007-4.5c-1.63,3.463-4.9,5.168-9.747,5.175-8.436.015-12.787-4.762-12.8-10.679-.012-6.671,5.018-10.393,15.718-10.411l5.683-.009a.039.039,0,0,0,.037-.046c-.46-2.612-2.478-3.978-6.483-3.971a15.551,15.551,0,0,0-8.774,2.7.034.034,0,0,1-.051-.013l-2.7-5.565a4.165,4.165,0,0,1,2.3-5.736,34.634,34.634,0,0,1,11.348-1.96c11.834-.019,18.639,5.067,18.657,16.524M127.58,73.022l0-2.348a.036.036,0,0,0-.036-.036l-3.49,0c-3.021.006-4.341,1.016-4.338,2.9,0,1.573,1.263,2.767,3.4,2.763a4.5,4.5,0,0,0,4.462-3.274v-.013" transform="translate(52.853 24.51)" fill="#fff"/>
        <path id="Caminho_91" data-name="Caminho 91" d="M134.023,41.388l9.816-.016a4.373,4.373,0,0,1,4.38,4.365l.07,42.294a.036.036,0,0,1-.036.036L134.1,88.09a.036.036,0,0,1-.036-.036l-.078-46.63a.036.036,0,0,1,.036-.036" transform="translate(66.772 20.618)" fill="#fff"/>
        <path id="Caminho_92" data-name="Caminho 92" d="M29.621,45.479c-.007-4.09,3.325-7.243,8.55-7.252s8.565,2.881,8.572,6.972c.007,4.344-3.325,7.5-8.548,7.505s-8.566-3.135-8.574-7.225" transform="translate(14.762 19.051)" fill="#fff"/>
      </g>
    </g>
  </g>
</svg>